<?xml version="1.0" encoding="UTF-8" standalone="no"?>
<!-- Created with Inkscape (http://www.inkscape.org/) -->

<svg
   xmlns:dc="http://purl.org/dc/elements/1.1/"
   xmlns:cc="http://creativecommons.org/ns#"
   xmlns:rdf="http://www.w3.org/1999/02/22-rdf-syntax-ns#"
   xmlns:svg="http://www.w3.org/2000/svg"
   xmlns="http://www.w3.org/2000/svg"
   xmlns:sodipodi="http://sodipodi.sourceforge.net/DTD/sodipodi-0.dtd"
   xmlns:inkscape="http://www.inkscape.org/namespaces/inkscape"
   width="1052.3622"
   height="744.09448"
   id="svg2"
   version="1.1"
   inkscape:version="0.48.5 r10040"
   sodipodi:docname="cryptoparty-privacycafe-menu-cover-en.svg">
  <defs
     id="defs4" />
  <sodipodi:namedview
     id="base"
     pagecolor="#ffffff"
     bordercolor="#666666"
     borderopacity="1.0"
     inkscape:pageopacity="0.0"
     inkscape:pageshadow="2"
     inkscape:zoom="1.064381"
     inkscape:cx="526.18109"
     inkscape:cy="372.04724"
     inkscape:document-units="px"
     inkscape:current-layer="layer1"
     showgrid="true"
     units="mm"
     inkscape:window-width="1676"
     inkscape:window-height="1007"
     inkscape:window-x="0"
     inkscape:window-y="20"
     inkscape:window-maximized="0"
     inkscape:snap-global="true">
    <inkscape:grid
       type="xygrid"
       id="grid3121"
       empspacing="5"
       visible="true"
       enabled="true"
       snapvisiblegridlinesonly="true" />
    <sodipodi:guide
       position="352.55905,743.59445"
       orientation="743.09448,0"
       id="guide3059" />
    <sodipodi:guide
       position="703.34642,743.58551"
       orientation="743.07654,0"
       id="guide3065" />
  </sodipodi:namedview>
  <metadata
     id="metadata7">
    <rdf:RDF>
      <cc:Work
         rdf:about="">
        <dc:format>image/svg+xml</dc:format>
        <dc:type
           rdf:resource="http://purl.org/dc/dcmitype/StillImage" />
        <dc:title />
      </cc:Work>
    </rdf:RDF>
  </metadata>
  <g
     inkscape:label="Layer 1"
     inkscape:groupmode="layer"
     id="layer1"
     transform="translate(0,-308.26769)">
    <g
       transform="matrix(0.70387867,0,0,0.70387867,653.74457,482.69218)"
       id="g3136">
      <path
         style="fill:#0d0207;fill-rule:evenodd"
         inkscape:connector-curvature="0"
         id="path3118"
         d="m 228.848,204.204 c 10e-4,6.029 -0.005,12.058 0.004,18.087 0.004,3.083 0.22,3.303 3.236,3.309 5.366,0.009 10.732,-0.008 16.099,0.01 2.625,0.009 2.986,0.361 2.992,3.01 0.016,9.076 0.016,18.152 -0.002,27.23 -0.002,2.371 -0.309,2.697 -2.613,2.699 -12.521,0.016 -25.042,-0.016 -37.564,0.035 -1.825,0.006 -2.396,-0.684 -2.386,-2.455 0.06,-9.408 0.058,-18.814 0.007,-28.221 -0.01,-1.684 0.51,-2.444 2.279,-2.327 1.649,0.109 3.312,-0.003 4.968,0.023 1.543,0.024 2.362,-0.634 2.34,-2.239 -0.023,-1.656 -0.009,-3.312 -0.012,-4.968 -0.002,-1.394 -0.723,-2.057 -2.096,-2.06 -2.054,-0.004 -4.108,-0.046 -6.161,-0.006 -1.382,0.027 -2.104,-0.475 -2.08,-1.952 0.043,-2.583 0.041,-5.168 0.002,-7.751 -0.02,-1.294 0.594,-1.753 1.816,-1.736 2.119,0.029 4.239,-0.02 6.359,-0.005 1.49,0.01 2.183,-0.704 2.169,-2.183 -0.018,-2.053 -0.011,-4.107 -0.008,-6.161 0.002,-1.401 -0.712,-2.051 -2.089,-2.051 -2.12,0 -4.24,-0.051 -6.359,-0.007 -1.34,0.027 -1.923,-0.506 -1.895,-1.871 0.053,-2.583 0.035,-5.167 0.016,-7.751 -0.009,-1.24 0.549,-1.808 1.797,-1.805 5.83,0.014 11.659,0.021 17.489,-0.009 1.685,-0.009 1.693,1.08 1.691,2.273 -0.006,6.295 -0.002,12.588 0.001,18.882 z m 0.899,32.832 c -2.717,0 -5.435,0.022 -8.15,-0.008 -1.559,-0.018 -2.336,0.65 -2.31,2.251 0.034,2.053 0.014,4.108 0.021,6.161 0.005,1.289 0.619,1.953 1.945,1.951 5.632,-0.01 11.264,-0.01 16.896,-0.002 1.365,0.002 1.87,-0.734 1.864,-2.002 -0.009,-1.855 0.027,-3.71 0.008,-5.565 -0.027,-2.496 -0.277,-2.757 -2.721,-2.784 -2.517,-0.027 -5.036,-0.006 -7.553,-0.002 z"
         clip-rule="evenodd" />
      <path
         style="fill-rule:evenodd"
         inkscape:connector-curvature="0"
         id="path3120"
         d="m 151.524,291.917 c 0.515,-6.12 0.852,-11.437 1.442,-16.725 0.516,-4.628 2.933,-7.767 7.829,-8.29 3.797,-0.404 7.619,-0.816 11.429,-0.816 48.827,-0.003 97.655,0.037 146.482,0.141 11.492,0.025 14.063,2.452 15.067,13.822 0.321,3.646 0.227,7.326 0.381,10.988 0.116,2.769 1.261,4.104 4.394,3.952 18.772,-0.915 32.156,7.942 39.987,24.341 7.98,16.713 5.532,32.976 -6.621,47.005 -11.054,12.761 -25.091,20.53 -42.42,19.646 -5.921,-0.302 -11.82,-2.926 -17.525,-5.039 -5.459,-2.021 -7.066,-2.134 -9.441,3.263 -3.264,7.417 -6.092,15.081 -8.349,22.859 -0.951,3.278 -2.053,4.189 -5.261,4.179 -30.663,-0.102 -61.327,-0.071 -91.991,-0.048 -2.242,0.001 -4.294,0.148 -4.823,-2.87 -2.518,-14.368 -9.625,-26.849 -16.483,-39.401 -9.842,-18.015 -18.934,-36.319 -22.002,-56.915 -1.029,-6.901 -1.464,-13.889 -2.095,-20.092 z m 171.416,53.451 c -0.429,13.43 5.43,18.455 13.977,15.557 7.785,-2.64 14.117,-7.557 18.329,-14.663 4.606,-7.771 1.896,-18.445 -5.545,-23.488 -6.903,-4.678 -14.511,-3.903 -18.579,3.276 -4.021,7.096 -6.447,15.097 -8.182,19.318 z"
         clip-rule="evenodd" />
      <g
         id="g3122">
        <path
           style="fill:#41a62a;fill-rule:evenodd"
           inkscape:connector-curvature="0"
           id="path3124"
           d="m 249.416,432.48 c -13.111,-7.283 -26.213,-14.58 -39.328,-21.854 -7.112,-3.947 -7.883,-3.75 -11.886,3.563 -5.751,10.51 -11.37,21.092 -17.125,31.603 -3.312,6.046 -4.246,6.314 -10.043,3.1 -19.819,-10.988 -39.627,-21.997 -59.419,-33.032 -5.645,-3.148 -5.94,-4.11 -2.763,-9.769 11.084,-19.741 22.277,-39.425 33.333,-59.187 4.307,-7.701 8.399,-15.523 12.505,-23.332 1.973,-3.751 4.454,-4.31 8.135,-2.219 19.683,11.184 39.431,22.259 59.167,33.353 7.043,3.962 7.054,3.94 3.076,11.127 -2.018,3.645 -4.031,7.29 -6.04,10.941 -1.67,3.038 -1.003,5.438 2.02,7.138 4.213,2.367 8.452,4.688 12.657,7.069 3.518,1.989 5.962,0.914 7.793,-2.476 2.296,-4.25 4.833,-8.378 7.009,-12.688 1.87,-3.703 4.083,-4.152 7.574,-2.017 4.542,2.78 9.27,5.28 14.041,7.647 3.532,1.754 3.87,3.84 1.885,7.073 -2.611,4.257 -4.856,8.737 -7.319,13.087 -1.941,3.426 -1.232,5.978 2.246,7.859 4.25,2.299 8.487,4.627 12.665,7.055 3.609,2.095 6.243,1.408 8.229,-2.301 2.357,-4.408 4.907,-8.712 7.271,-13.116 1.529,-2.849 3.446,-3.853 6.479,-2.125 5.791,3.299 11.608,6.562 17.479,9.715 2.722,1.463 2.778,3.258 1.415,5.698 -7.401,13.236 -14.791,26.478 -22.096,39.768 -2.017,3.676 -4.464,3.096 -7.463,1.415 -13.805,-7.743 -27.658,-15.405 -41.497,-23.095 z m -94.609,-53.387 c -3.233,5.814 -6.404,11.661 -9.719,17.428 -2.056,3.576 -1.568,6.228 2.199,8.227 4.258,2.261 8.469,4.618 12.646,7.025 3.62,2.088 6.265,1.353 8.169,-2.389 2.413,-4.738 4.802,-9.492 7.397,-14.13 3.489,-6.232 7.232,-12.321 10.738,-18.546 3.425,-6.074 3.179,-6.7 -2.644,-10.088 -3.731,-2.173 -7.438,-4.388 -11.11,-6.657 -3.838,-2.372 -6.457,-1.314 -8.499,2.544 -2.954,5.582 -6.109,11.062 -9.177,16.586 z"
           clip-rule="evenodd" />
      </g>
      <path
         style="fill:#0d0207;fill-rule:evenodd"
         inkscape:connector-curvature="0"
         id="path3126"
         d="m 255.707,149.394 c 0.001,6.029 -0.005,12.058 0.004,18.087 0.004,3.083 0.22,3.303 3.236,3.309 5.366,0.009 10.732,-0.008 16.099,0.01 2.625,0.009 2.986,0.361 2.992,3.01 0.016,9.076 0.016,18.153 -0.001,27.229 -0.003,2.372 -0.309,2.697 -2.613,2.699 -12.521,0.016 -25.043,-0.016 -37.564,0.035 -1.825,0.007 -2.396,-0.683 -2.386,-2.455 0.06,-9.407 0.058,-18.814 0.007,-28.221 -0.01,-1.684 0.51,-2.444 2.279,-2.327 1.649,0.109 3.312,-0.003 4.968,0.023 1.543,0.024 2.362,-0.634 2.34,-2.239 -0.023,-1.656 -0.009,-3.312 -0.012,-4.968 -0.002,-1.394 -0.723,-2.057 -2.096,-2.06 -2.054,-0.004 -4.108,-0.046 -6.161,-0.006 -1.382,0.027 -2.104,-0.475 -2.08,-1.952 0.043,-2.583 0.041,-5.168 0.002,-7.751 -0.02,-1.294 0.594,-1.753 1.816,-1.736 2.119,0.029 4.239,-0.02 6.359,-0.005 1.49,0.01 2.183,-0.704 2.169,-2.183 -0.018,-2.053 -0.011,-4.107 -0.008,-6.161 0.002,-1.401 -0.712,-2.051 -2.089,-2.051 -2.12,0 -4.24,-0.051 -6.359,-0.007 -1.34,0.027 -1.923,-0.506 -1.895,-1.871 0.053,-2.583 0.035,-5.167 0.016,-7.751 -0.009,-1.24 0.549,-1.808 1.797,-1.805 5.83,0.014 11.659,0.021 17.489,-0.009 1.685,-0.009 1.693,1.08 1.691,2.273 -0.007,6.295 -0.003,12.589 0,18.883 z m 0.898,32.831 c -2.717,0 -5.435,0.022 -8.15,-0.008 -1.559,-0.018 -2.336,0.65 -2.31,2.251 0.034,2.053 0.014,4.107 0.021,6.162 0.005,1.289 0.619,1.953 1.945,1.951 5.632,-0.01 11.264,-0.011 16.896,-0.002 1.365,0.002 1.87,-0.735 1.864,-2.002 -0.009,-1.855 0.027,-3.711 0.008,-5.565 -0.027,-2.496 -0.277,-2.757 -2.721,-2.784 -2.516,-0.028 -5.035,-0.007 -7.553,-0.003 z"
         clip-rule="evenodd" />
      <path
         style="fill-rule:evenodd"
         inkscape:connector-curvature="0"
         id="path3128"
         d="m 243.085,421.062 c 42.978,0.003 85.955,0.022 128.933,-0.027 4.363,-0.005 8.497,0.194 10.224,5.102 1.805,5.127 -0.92,8.792 -4.619,11.634 -9.356,7.187 -20.562,9.971 -31.772,12.435 -31.038,6.822 -62.589,8.681 -94.248,9.079 -32.33,0.406 -64.645,-0.531 -96.524,-6.259 -13.464,-2.418 -26.599,-6.854 -39.708,-10.937 -3.447,-1.073 -6.528,-3.941 -9.256,-6.533 -2.782,-2.644 -3.964,-6.214 -2.162,-10.046 1.72,-3.657 4.91,-4.487 8.701,-4.482 43.476,0.05 86.953,0.032 130.431,0.034 z"
         clip-rule="evenodd" />
    </g>
    <g
       transform="matrix(0.2961749,0,0,0.2961749,784.75366,846.33541)"
       id="g3510">
      <polygon
         style="fill:#d900ff"
         id="polygon3373"
         points="10.729,11.993 10.729,40.698 10.729,69.367 10.729,98.034 10.729,126.734 39.394,126.734 68.12,126.734 96.785,126.734 96.785,98.034 68.12,98.034 39.394,98.034 39.394,69.367 39.394,40.698 68.12,40.698 96.785,40.698 96.785,11.993 68.12,11.993 39.394,11.993 " />
      <path
         style="fill:#d900ff"
         inkscape:connector-curvature="0"
         id="path3375"
         d="M 154.115,11.993 H 125.45 v 28.705 28.669 28.667 28.7 h 28.665 v -28.7 h 28.727 V 69.406 h 28.665 V 40.698 l 0,0 V 11.993 h -28.665 -28.727 z m 28.726,28.705 V 69.33 H 154.114 V 40.698 h 28.727 l 0,0 z" />
      <rect
         style="fill:#d900ff"
         id="rect3377"
         height="28.700001"
         width="28.665001"
         y="98.033997"
         x="182.841" />
      <polygon
         style="fill:#d900ff"
         id="polygon3379"
         points="326.229,11.993 297.564,11.993 297.564,40.698 297.564,69.33 268.899,69.33 268.899,40.665 268.838,40.665 268.838,11.993 240.173,11.993 240.173,40.665 240.173,40.698 240.173,69.33 240.173,98.034 268.838,98.034 268.899,98.034 297.564,98.034 297.564,126.734 326.229,126.734 326.229,98.034 326.229,69.367 326.229,40.698 " />
      <path
         style="fill:#d900ff"
         inkscape:connector-curvature="0"
         id="path3381"
         d="m 383.555,11.993 h -28.661 v 28.705 28.669 28.667 28.7 h 28.661 v -28.7 h 28.732 28.665 V 69.33 40.698 40.665 11.993 H 412.287 383.555 z M 412.287,69.33 H 383.555 V 40.698 h 28.732 V 69.33 z" />
      <polygon
         style="fill:#d900ff"
         id="polygon3383"
         points="498.338,40.698 498.338,69.367 498.338,98.034 498.338,126.734 527.007,126.734 527.007,98.034 527.007,69.367 527.007,40.698 555.68,40.698 555.68,11.993 527.007,11.993 498.294,11.993 469.621,11.993 469.621,40.698 498.294,40.698 " />
      <path
         style="fill:#d900ff"
         inkscape:connector-curvature="0"
         id="path3385"
         d="m 385.818,155.403 h -28.665 v 28.652 28.665 28.714 28.694 h 28.665 v -28.694 h 28.728 v 28.694 h 28.666 v -28.694 -28.715 -28.664 -28.652 h -28.666 -28.728 l 0,0 z m 28.728,57.318 h -28.728 v -28.665 h 28.728 v 28.665 z" />
      <path
         style="fill:#d900ff"
         inkscape:connector-curvature="0"
         id="path3387"
         d="m 271.101,155.403 h -28.667 v 28.652 28.665 28.714 28.694 h 28.667 v -28.694 h 28.718 28.669 v -28.715 -28.664 -0.038 -28.614 h -28.669 -28.718 z m 28.718,57.318 h -28.718 v -28.665 h 28.718 v 28.665 z" />
      <polygon
         style="fill:#d900ff"
         id="polygon3389"
         points="615.328,184.056 615.328,212.721 615.328,241.435 615.328,270.13 643.993,270.13 643.993,241.435 643.993,212.721 643.993,184.056 672.658,184.056 672.658,155.403 643.993,155.403 615.265,155.403 586.6,155.403 586.6,184.056 615.265,184.056 " />
      <path
         style="fill:#d900ff"
         inkscape:connector-curvature="0"
         id="path3391"
         d="m 500.545,155.403 h -28.664 v 28.652 28.665 28.714 28.694 h 28.664 V 241.434 H 529.27 V 212.76 h 28.665 v -28.664 -0.04 -28.652 H 529.27 500.545 z m 28.725,28.693 v 28.625 h -28.725 v -28.665 h 28.725 v 0.04 z" />
      <rect
         style="fill:#d900ff"
         id="rect3393"
         height="28.694"
         width="28.665001"
         y="241.435"
         x="529.27002" />
      <polygon
         style="fill:#d900ff"
         id="polygon3395"
         points="787.377,184.056 787.377,155.403 758.712,155.403 758.712,184.056 758.712,212.721 730.047,212.721 730.047,184.018 729.988,184.018 729.988,155.403 701.323,155.403 701.323,184.018 701.323,184.056 701.323,212.721 701.323,241.435 729.988,241.435 730.047,241.435 758.712,241.435 758.712,270.13 787.377,270.13 787.377,241.435 787.377,212.721 " />
      <rect
         style="fill:#ff0098"
         id="rect3397"
         height="28.704"
         width="28.665001"
         y="97.765999"
         x="614.31097" />
      <rect
         style="fill:#ff0098"
         id="rect3399"
         height="28.700001"
         width="28.665001"
         y="98.033997"
         x="700.30603" />
      <rect
         style="fill:#ff0098"
         id="rect3401"
         height="28.700001"
         width="28.665001"
         y="98.033997"
         x="642.97601" />
      <rect
         style="fill:#ff0098"
         id="rect3403"
         height="28.700001"
         width="28.664"
         y="98.033997"
         x="585.646" />
      <rect
         style="fill:#ff0098"
         id="rect3405"
         height="28.705"
         width="28.665001"
         y="69.25"
         x="700.30603" />
      <rect
         style="fill:#ff0098"
         id="rect3407"
         height="28.705"
         width="28.665001"
         y="69.25"
         x="671.64099" />
      <rect
         style="fill:#ff0098"
         id="rect3409"
         height="28.700001"
         width="28.665001"
         y="98.033997"
         x="757.58398" />
      <rect
         style="fill:#ff0098"
         id="rect3411"
         height="28.705"
         width="28.665001"
         y="69.25"
         x="757.58398" />
      <rect
         style="fill:#ff0098"
         id="rect3413"
         height="28.705"
         width="28.665001"
         y="69.25"
         x="728.91901" />
      <rect
         style="fill:#ff0098"
         id="rect3415"
         height="28.705"
         width="28.665001"
         y="69.25"
         x="642.97601" />
      <rect
         style="fill:#ff0098"
         id="rect3417"
         height="28.705"
         width="28.664"
         y="69.25"
         x="585.646" />
      <rect
         style="fill:#ff0098"
         id="rect3419"
         height="28.702"
         width="28.665001"
         y="40.431"
         x="642.97601" />
      <rect
         style="fill:#ff0098"
         id="rect3421"
         height="28.702"
         width="28.664"
         y="40.431"
         x="585.646" />
      <rect
         style="fill:#ff0098"
         id="rect3423"
         height="28.704"
         width="28.665001"
         y="11.728"
         x="642.97601" />
      <rect
         style="fill:#ff0098"
         id="rect3425"
         height="28.704"
         width="28.665001"
         y="11.728"
         x="614.31097" />
      <rect
         style="fill:#ff0098"
         id="rect3427"
         height="28.704"
         width="28.664"
         y="11.728"
         x="585.646" />
      <rect
         style="fill:#ff0098"
         id="rect3429"
         height="28.695999"
         width="28.665001"
         y="241.16499"
         x="156.429" />
      <rect
         style="fill:#ff0098"
         id="rect3431"
         height="28.694"
         width="28.669001"
         y="241.435"
         x="70.431999" />
      <rect
         style="fill:#ff0098"
         id="rect3433"
         height="28.694"
         width="28.663"
         y="241.435"
         x="127.766" />
      <rect
         style="fill:#ff0098"
         id="rect3435"
         height="28.694"
         width="28.665001"
         y="241.435"
         x="185.09399" />
      <rect
         style="fill:#ff0098"
         id="rect3437"
         height="28.701"
         width="28.669001"
         y="212.61"
         x="70.431999" />
      <rect
         style="fill:#ff0098"
         id="rect3439"
         height="28.701"
         width="28.665001"
         y="212.61"
         x="99.100998" />
      <rect
         style="fill:#ff0098"
         id="rect3441"
         height="28.694"
         width="28.664"
         y="241.435"
         x="13.157" />
      <rect
         style="fill:#ff0098"
         id="rect3443"
         height="28.701"
         width="28.664"
         y="212.61"
         x="13.157" />
      <rect
         style="fill:#ff0098"
         id="rect3445"
         height="28.701"
         width="28.673"
         y="212.61"
         x="41.82" />
      <rect
         style="fill:#ff0098"
         id="rect3447"
         height="28.701"
         width="28.663"
         y="212.61"
         x="127.766" />
      <rect
         style="fill:#ff0098"
         id="rect3449"
         height="28.701"
         width="28.665001"
         y="212.61"
         x="185.09399" />
      <rect
         style="fill:#ff0098"
         id="rect3451"
         height="28.704"
         width="28.663"
         y="183.828"
         x="127.766" />
      <rect
         style="fill:#ff0098"
         id="rect3453"
         height="28.704"
         width="28.665001"
         y="183.828"
         x="185.09399" />
      <rect
         style="fill:#ff0098"
         id="rect3455"
         height="28.693001"
         width="28.663"
         y="155.13499"
         x="127.766" />
      <rect
         style="fill:#ff0098"
         id="rect3457"
         height="28.693001"
         width="28.665001"
         y="155.13499"
         x="156.429" />
      <rect
         style="fill:#ff0098"
         id="rect3459"
         height="28.693001"
         width="28.665001"
         y="155.13499"
         x="185.09399" />
    </g>
    <text
       xml:space="preserve"
       style="font-size:40px;font-style:normal;font-variant:normal;font-weight:bold;font-stretch:normal;text-align:center;line-height:125%;letter-spacing:0px;word-spacing:0px;text-anchor:middle;fill:#000000;fill-opacity:1;stroke:none;font-family:Nimbus Sans L;-inkscape-font-specification:Sans Bold"
       x="880"
       y="382.36218"
       id="text3718"
       sodipodi:linespacing="125%"><tspan
         sodipodi:role="line"
         x="880"
         y="382.36218"
         id="tspan3722">learn digital</tspan><tspan
         sodipodi:role="line"
         x="880"
         y="432.36218"
         id="tspan3728">self-defense</tspan></text>
    <text
       xml:space="preserve"
       style="font-size:40px;font-style:normal;font-variant:normal;font-weight:bold;font-stretch:normal;line-height:125%;letter-spacing:0px;word-spacing:0px;fill:#000000;fill-opacity:1;stroke:none;font-family:Nimbus Sans L;-inkscape-font-specification:Sans Bold"
       x="467.87756"
       y="348.55942"
       id="text3732"
       sodipodi:linespacing="125%"
       transform="translate(0,308.26769)"><tspan
         sodipodi:role="line"
         id="tspan3734"></tspan></text>
    <text
       xml:space="preserve"
       style="font-size:20px;font-style:normal;font-variant:normal;font-weight:bold;font-stretch:normal;line-height:125%;letter-spacing:0px;word-spacing:0px;fill:#000000;fill-opacity:1;stroke:none;font-family:Nimbus Sans L;-inkscape-font-specification:Sans Bold"
       x="830"
       y="1022.3622"
       id="text3736"
       sodipodi:linespacing="125%"><tspan
         sodipodi:role="line"
         id="tspan3738"
         x="830"
         y="1022.3622">https://cryptoparty.in</tspan><tspan
         sodipodi:role="line"
         x="830"
         y="1047.3622"
         id="tspan3740" /></text>
    <text
       xml:space="preserve"
       style="font-size:20px;font-style:normal;font-variant:normal;font-weight:bold;font-stretch:normal;line-height:125%;letter-spacing:0px;word-spacing:0px;fill:#000000;fill-opacity:1;stroke:none;font-family:Nimbus Sans L;-inkscape-font-specification:Sans Bold"
       x="830"
       y="992.36218"
       id="text3742"
       sodipodi:linespacing="125%"><tspan
         sodipodi:role="line"
         id="tspan3744"
         x="830"
         y="992.36218">https://privacycafe.nl</tspan></text>
    <g
       id="g4565">
      <text
         sodipodi:linespacing="125%"
         id="text3706"
         y="532.36218"
         x="1020"
         style="font-size:64px;font-style:normal;font-variant:normal;font-weight:bold;font-stretch:normal;text-align:end;line-height:125%;letter-spacing:0px;word-spacing:0px;text-anchor:end;fill:#000000;fill-opacity:1;stroke:none;font-family:Nimbus Sans L;-inkscape-font-specification:Sans Bold"
         xml:space="preserve"><tspan
           id="tspan3710"
           y="532.36218"
           x="1020"
           sodipodi:role="line">Privacy</tspan><tspan
           id="tspan3716"
           y="612.36218"
           x="1020"
           sodipodi:role="line">Café</tspan></text>
      <path
         inkscape:connector-curvature="0"
         id="path3746"
         d="m 790,522.36217 230,0"
         style="fill:none;stroke:#000000;stroke-width:10.62992126;stroke-linecap:butt;stroke-linejoin:miter;stroke-miterlimit:4;stroke-opacity:1;stroke-dasharray:none" />
      <path
         inkscape:connector-curvature="0"
         id="path3746-2"
         d="m 880,602.36217 140,0"
         style="fill:none;stroke:#000000;stroke-width:10.62992126;stroke-linecap:butt;stroke-linejoin:miter;stroke-miterlimit:4;stroke-opacity:1;stroke-dasharray:none" />
    </g>
  </g>
</svg>
